M48
; DRILL file {KiCad (7.0.0)} date Fri Nov 10 08:28:05 2023
; FORMAT={-:-/ absolute / metric / decimal}
; #@! TF.CreationDate,2023-11-10T08:28:05+01:00
; #@! TF.GenerationSoftware,Kicad,Pcbnew,(7.0.0)
; #@! TF.FileFunction,Plated,1,2,PTH
FMAT,2
METRIC
; #@! TA.AperFunction,Plated,PTH,ViaDrill
T1C0.400
; #@! TA.AperFunction,Plated,PTH,ComponentDrill
T2C0.950
; #@! TA.AperFunction,Plated,PTH,ComponentDrill
T3C1.000
; #@! TA.AperFunction,Plated,PTH,ComponentDrill
T4C1.016
; #@! TA.AperFunction,Plated,PTH,ComponentDrill
T5C1.100
%
G90
G05
T1
X7.5Y107.5
X7.5Y55.0
X7.5Y42.5
X10.0Y122.5
X10.0Y115.0
X10.0Y95.0
X10.0Y77.5
X10.0Y65.0
X10.0Y25.0
X10.0Y15.0
X12.5Y107.5
X13.012Y85.0
X15.0Y72.5
X17.5Y112.5
X17.5Y52.5
X17.5Y35.0
X22.5Y120.0
X25.0Y137.5
X25.0Y42.5
X27.5Y100.0
X27.5Y87.5
X27.5Y67.5
X27.5Y20.0
X30.0Y127.5
X30.0Y75.0
X30.0Y62.5
X30.0Y37.5
X30.0Y12.5
X32.5Y120.0
X32.5Y92.5
X32.5Y30.0
X35.0Y97.5
X35.0Y42.5
X35.0Y20.0
X37.091Y45.096
X37.5Y90.0
X37.5Y67.5
X37.5Y50.0
X37.5Y47.5
X40.0Y137.5
X40.0Y120.0
X40.0Y52.5
X42.5Y82.5
X42.5Y65.0
X42.5Y22.5
X45.0Y97.5
X45.0Y27.5
X47.5Y117.5
X47.5Y65.0
X47.5Y52.5
X50.0Y92.5
X50.0Y47.5
X50.0Y20.0
X50.0Y12.5
X52.5Y120.0
X52.5Y87.5
X52.5Y77.5
X52.5Y60.0
X55.0Y97.5
X55.0Y65.0
X55.0Y22.5
X57.5Y72.5
X57.5Y50.0
X57.5Y42.5
X60.0Y120.0
X62.5Y90.0
X62.5Y85.0
X62.5Y67.5
X62.5Y62.5
X62.5Y52.5
X65.0Y117.5
X65.0Y95.0
X65.0Y42.5
X65.0Y35.0
X65.0Y22.5
X70.0Y137.5
X72.5Y122.5
X72.5Y97.5
X72.5Y90.0
X72.5Y85.0
X75.0Y105.0
X75.0Y80.0
X75.0Y65.0
X75.0Y25.0
X75.0Y12.5
X77.5Y80.0
X77.5Y65.0
X77.5Y50.0
X77.5Y37.5
X80.0Y110.0
X80.0Y100.0
X80.0Y90.0
X80.0Y85.0
X82.5Y122.5
X82.5Y120.0
X82.5Y72.5
X82.5Y62.5
X82.5Y60.0
X85.0Y100.0
X85.0Y92.5
X85.0Y37.5
X90.0Y137.5
X90.0Y115.0
X90.0Y107.5
X90.0Y75.0
X92.5Y22.5
X92.5Y17.5
X92.5Y12.5
X95.0Y120.0
X95.0Y75.0
X95.0Y60.0
X95.0Y58.087
X95.0Y47.5
X97.5Y102.5
X97.5Y92.5
X97.5Y50.0
X100.0Y112.5
X100.0Y92.5
X100.0Y87.5
X100.0Y82.5
X100.0Y80.0
X100.0Y62.5
X100.0Y22.5
X102.5Y55.0
X104.2Y117.5
X105.0Y137.5
X105.0Y70.0
X105.0Y17.5
X105.0Y12.5
X107.5Y67.5
X110.0Y112.5
X110.0Y95.0
X110.0Y75.0
X112.5Y120.0
X112.5Y105.0
X115.0Y80.0
X115.0Y65.0
X117.5Y120.0
X117.5Y110.0
X117.5Y100.0
X117.5Y92.5
X118.0Y30.5
X118.0Y18.0
X129.5Y123.0
X129.5Y96.0
X129.5Y70.0
X129.5Y43.0
X129.5Y18.0
X152.0Y123.0
X152.0Y96.0
X152.0Y70.0
X152.0Y43.0
X152.0Y18.0
X174.0Y123.0
X174.0Y96.0
X174.0Y70.0
X174.0Y43.0
X174.0Y18.0
T2
X75.0Y130.0
X77.5Y130.0
X80.0Y130.0
X82.5Y130.0
X95.0Y130.0
X97.5Y130.0
X100.0Y130.0
X102.5Y130.0
X115.0Y130.0
X117.5Y130.0
X120.0Y130.0
X122.5Y130.0
T3
X20.0Y130.0
X22.5Y130.0
X112.398Y89.687
X112.398Y87.147
X112.398Y22.213
X112.398Y19.673
X112.398Y17.133
X112.398Y14.593
X112.5Y59.727
X112.5Y57.187
X112.5Y54.647
X112.5Y52.107
T4
X22.1Y105.04
X22.1Y102.5
X22.1Y94.88
X22.1Y92.34
X22.1Y89.8
X22.1Y87.26
X22.1Y84.72
X22.1Y82.18
X22.1Y79.64
X22.1Y77.1
X22.1Y72.02
X22.1Y69.48
X22.1Y66.94
X22.1Y64.4
X22.1Y61.86
X22.1Y59.32
X22.1Y56.78
X22.1Y54.24
X22.1Y50.176
X22.1Y47.636
X22.1Y45.096
X22.1Y42.556
X22.1Y40.016
X22.1Y37.476
X22.1Y34.936
X22.1Y32.396
X22.1Y29.856
X22.1Y27.316
X24.64Y105.04
X24.64Y102.5
X27.18Y105.04
X27.18Y102.5
X29.72Y105.04
X29.72Y102.5
X32.26Y105.04
X32.26Y102.5
X34.8Y105.04
X34.8Y102.5
X37.34Y105.04
X37.34Y102.5
X39.88Y105.04
X39.88Y102.5
X42.42Y105.04
X42.42Y102.5
X42.42Y74.687
X42.42Y72.147
X44.96Y105.04
X44.96Y102.5
X44.96Y74.687
X44.96Y72.147
X47.5Y105.04
X47.5Y102.5
X47.5Y74.687
X47.5Y72.147
X50.04Y105.04
X50.04Y102.5
X52.58Y105.04
X52.58Y102.5
X55.12Y105.04
X55.12Y102.5
X57.66Y105.04
X57.66Y102.5
X60.2Y105.04
X60.2Y102.5
X62.74Y105.04
X62.74Y102.5
X65.28Y105.04
X65.28Y102.5
X70.36Y99.96
X70.36Y97.42
X70.36Y94.88
X70.36Y92.34
X70.36Y89.8
X70.36Y87.26
X70.36Y84.72
X70.36Y82.18
X70.36Y77.1
X70.36Y74.56
X70.36Y72.02
X70.36Y69.48
X70.36Y66.94
X70.36Y64.4
X70.36Y61.86
X70.36Y59.32
X70.36Y54.24
X70.36Y51.7
X70.36Y49.16
X70.36Y46.62
X70.36Y44.08
X70.36Y41.54
X70.36Y39.0
X70.36Y36.46
T5
X54.92Y130.0
X57.46Y130.0
X60.0Y130.0
T0
M30
